<svg width="24" height="20" viewBox="0 0 24 20" fill="none" xmlns="http://www.w3.org/2000/svg">
<g filter="url(#filter0_d)">
<mask id="path-1-inside-1" fill="white">
<path d="M18.5 0.419678H5.50001C4.67285 0.419678 4 1.05554 4 1.83722V10.3424C4 11.1241 4.67285 11.76 5.50001 11.76H18.5C19.3271 11.76 20 11.1241 20 10.3424V1.83722C20 1.05554 19.3271 0.419678 18.5 0.419678V0.419678ZM18.5 1.3647C18.5679 1.3647 18.6325 1.37802 18.6916 1.40128L12 6.8821L5.30833 1.40128C5.36742 1.37805 5.43204 1.3647 5.49998 1.3647H18.5ZM18.5 10.8149H5.50001C5.22414 10.8149 5 10.6031 5 10.3424V2.3997L11.6724 7.86449C11.7666 7.94154 11.8833 7.97985 12 7.97985C12.1167 7.97985 12.2334 7.94157 12.3276 7.86449L19 2.3997V10.3424C19 10.6031 18.7759 10.8149 18.5 10.8149V10.8149Z"/>
</mask>
<path d="M18.5 0.419678H5.50001C4.67285 0.419678 4 1.05554 4 1.83722V10.3424C4 11.1241 4.67285 11.76 5.50001 11.76H18.5C19.3271 11.76 20 11.1241 20 10.3424V1.83722C20 1.05554 19.3271 0.419678 18.5 0.419678V0.419678ZM18.5 1.3647C18.5679 1.3647 18.6325 1.37802 18.6916 1.40128L12 6.8821L5.30833 1.40128C5.36742 1.37805 5.43204 1.3647 5.49998 1.3647H18.5ZM18.5 10.8149H5.50001C5.22414 10.8149 5 10.6031 5 10.3424V2.3997L11.6724 7.86449C11.7666 7.94154 11.8833 7.97985 12 7.97985C12.1167 7.97985 12.2334 7.94157 12.3276 7.86449L19 2.3997V10.3424C19 10.6031 18.7759 10.8149 18.5 10.8149V10.8149Z" fill="#2196F3"/>
<path d="M18.6916 1.40128L19.3688 2.2281L20.7779 1.07404L19.0832 0.406813L18.6916 1.40128ZM12 6.8821L11.3228 7.70893L12 8.2636L12.6772 7.70893L12 6.8821ZM5.30833 1.40128L4.91726 0.406632L3.22135 1.07343L4.63112 2.2281L5.30833 1.40128ZM5 2.3997L5.67719 1.57286L3.93123 0.142885V2.3997H5ZM11.6724 7.86449L10.9952 8.69133L10.9959 8.69197L11.6724 7.86449ZM12.3276 7.86449L13.0042 8.69184L13.0048 8.69133L12.3276 7.86449ZM19 2.3997H20.0688V0.142885L18.3228 1.57286L19 2.3997ZM19 10.3424L20.0688 10.3425V10.3424H19ZM18.5 -0.649086H5.50001V1.48844H18.5V-0.649086ZM5.50001 -0.649086C4.14034 -0.649086 2.93124 0.40914 2.93124 1.83722H5.06876C5.06876 1.70194 5.20537 1.48844 5.50001 1.48844V-0.649086ZM2.93124 1.83722V10.3424H5.06876V1.83722H2.93124ZM2.93124 10.3424C2.93124 11.7705 4.14034 12.8287 5.50001 12.8287V10.6912C5.20537 10.6912 5.06876 10.4777 5.06876 10.3424H2.93124ZM5.50001 12.8287H18.5V10.6912H5.50001V12.8287ZM18.5 12.8287C19.8597 12.8287 21.0688 11.7705 21.0688 10.3424H18.9312C18.9312 10.4777 18.7946 10.6912 18.5 10.6912V12.8287ZM21.0688 10.3424V1.83722H18.9312V10.3424H21.0688ZM21.0688 1.83722C21.0688 0.40914 19.8597 -0.649086 18.5 -0.649086V1.48844C18.7946 1.48844 18.9312 1.70194 18.9312 1.83722H21.0688ZM18.5 2.43346C18.4271 2.43346 18.3592 2.419 18.3001 2.39574L19.0832 0.406813C18.9059 0.337025 18.7088 0.295931 18.5 0.295931V2.43346ZM18.0144 0.574454L11.3228 6.05528L12.6772 7.70893L19.3688 2.2281L18.0144 0.574454ZM12.6772 6.05528L5.98555 0.574452L4.63112 2.2281L11.3228 7.70893L12.6772 6.05528ZM5.69941 2.39592C5.64094 2.41891 5.57323 2.43346 5.49998 2.43346V0.295931C5.29086 0.295931 5.0939 0.337182 4.91726 0.406632L5.69941 2.39592ZM5.49998 2.43346H18.5V0.295931H5.49998V2.43346ZM18.5 9.74614H5.50001V11.8837H18.5V9.74614ZM5.50001 9.74614C5.7566 9.74614 6.06876 9.95668 6.06876 10.3424H3.93123C3.93123 11.2496 4.69167 11.8837 5.50001 11.8837V9.74614ZM6.06876 10.3424V2.3997H3.93123V10.3424H6.06876ZM4.3228 3.22654L10.9952 8.69133L12.3496 7.03765L5.67719 1.57286L4.3228 3.22654ZM10.9959 8.69197C11.2923 8.93418 11.6516 9.04862 12 9.04862V6.91109C12.115 6.91109 12.241 6.94889 12.3488 7.03701L10.9959 8.69197ZM12 9.04862C12.3483 9.04862 12.7077 8.93432 13.0042 8.69184L11.6511 7.03715C11.7591 6.94882 11.8851 6.91109 12 6.91109V9.04862ZM13.0048 8.69133L19.6772 3.22654L18.3228 1.57286L11.6504 7.03765L13.0048 8.69133ZM17.9312 2.3997V10.3424H20.0688V2.3997H17.9312ZM17.9312 10.3423C17.9313 9.95672 18.2433 9.74614 18.5 9.74614V11.8837C19.3084 11.8837 20.0687 11.2495 20.0688 10.3425L17.9312 10.3423Z" fill="black" mask="url(#path-1-inside-1)"/>
</g>
<defs>
<filter id="filter0_d" x="0" y="0.419678" width="24" height="19.3403" filterUnits="userSpaceOnUse" color-interpolation-filters="sRGB">
<feFlood flood-opacity="0" result="BackgroundImageFix"/>
<feColorMatrix in="SourceAlpha" type="matrix" values="0 0 0 0 0 0 0 0 0 0 0 0 0 0 0 0 0 0 127 0"/>
<feOffset dy="4"/>
<feGaussianBlur stdDeviation="2"/>
<feColorMatrix type="matrix" values="0 0 0 0 0 0 0 0 0 0 0 0 0 0 0 0 0 0 0.25 0"/>
<feBlend mode="normal" in2="BackgroundImageFix" result="effect1_dropShadow"/>
<feBlend mode="normal" in="SourceGraphic" in2="effect1_dropShadow" result="shape"/>
</filter>
</defs>
</svg>
