<svg width="152" height="20" viewBox="0 0 152 20" fill="none" xmlns="http://www.w3.org/2000/svg">
<path d="M8.294 0.888265H11.596L13.676 6.99826L15.756 0.888265H19.084L15.938 9.28626L18.278 15.1883L23.504 0.836264H27.404L19.89 19.2963H16.874L13.676 11.5483L10.478 19.2963H7.462L0 0.836264H3.848L9.1 15.1883L11.388 9.28626L8.294 0.888265ZM34.3793 19.5563C33.2873 19.5563 32.2993 19.3743 31.4153 19.0103C30.5313 18.6289 29.7773 18.1176 29.1533 17.4763C28.5293 16.8349 28.044 16.0896 27.6973 15.2403C27.368 14.3909 27.2033 13.4983 27.2033 12.5623C27.2033 11.5916 27.368 10.6816 27.6973 9.83226C28.0266 8.9656 28.5033 8.2116 29.1273 7.57026C29.7513 6.9116 30.5053 6.3916 31.3893 6.01026C32.2906 5.62893 33.296 5.43826 34.4053 5.43826C35.5146 5.43826 36.5026 5.62893 37.3693 6.01026C38.2533 6.3916 38.9986 6.90293 39.6053 7.54426C40.2293 8.1856 40.6973 8.93093 41.0093 9.78026C41.3386 10.6296 41.5033 11.5136 41.5033 12.4323C41.5033 12.6576 41.4946 12.8743 41.4773 13.0823C41.4773 13.2903 41.46 13.4636 41.4253 13.6023H30.8953C30.9473 14.1396 31.0773 14.6163 31.2853 15.0323C31.4933 15.4483 31.762 15.8036 32.0913 16.0983C32.4206 16.3929 32.7933 16.6183 33.2093 16.7743C33.6253 16.9303 34.0586 17.0083 34.5093 17.0083C35.2026 17.0083 35.8526 16.8436 36.4593 16.5143C37.0833 16.1676 37.508 15.7169 37.7333 15.1623L40.7233 15.9943C40.2206 17.0343 39.4146 17.8923 38.3053 18.5683C37.2133 19.2269 35.9046 19.5563 34.3793 19.5563ZM37.9153 11.3403C37.8286 10.3176 37.4473 9.50293 36.7713 8.89626C36.1126 8.27226 35.3066 7.96026 34.3533 7.96026C33.8853 7.96026 33.4433 8.04693 33.0273 8.22026C32.6286 8.37626 32.2733 8.6016 31.9613 8.89626C31.6493 9.19093 31.3893 9.54626 31.1813 9.96226C30.9906 10.3783 30.878 10.8376 30.8433 11.3403H37.9153ZM52.1538 19.5563C51.1138 19.5563 50.1864 19.3223 49.3718 18.8543C48.5571 18.3863 47.9158 17.7449 47.4478 16.9303V19.2963H44.4058V0.316264H47.8898V8.06426C48.3751 7.23226 49.0078 6.59093 49.7878 6.14026C50.5851 5.67226 51.5124 5.43826 52.5698 5.43826C53.4538 5.43826 54.2598 5.62893 54.9878 6.01026C55.7158 6.3916 56.3398 6.90293 56.8598 7.54426C57.3971 8.1856 57.8044 8.9396 58.0818 9.80626C58.3764 10.6729 58.5238 11.5829 58.5238 12.5363C58.5238 13.5243 58.3591 14.4429 58.0298 15.2923C57.7178 16.1416 57.2758 16.8869 56.7038 17.5283C56.1318 18.1523 55.4558 18.6463 54.6758 19.0103C53.8958 19.3743 53.0551 19.5563 52.1538 19.5563ZM51.1918 16.5923C51.7464 16.5923 52.2578 16.4883 52.7258 16.2803C53.1938 16.0549 53.5924 15.7603 53.9218 15.3963C54.2511 15.0323 54.5024 14.6076 54.6758 14.1223C54.8664 13.6369 54.9618 13.1169 54.9618 12.5623C54.9618 12.0076 54.8751 11.4789 54.7018 10.9763C54.5284 10.4736 54.2771 10.0316 53.9478 9.65026C53.6358 9.26893 53.2631 8.9656 52.8298 8.74026C52.3964 8.51493 51.9198 8.40226 51.3998 8.40226C50.6198 8.40226 49.9178 8.66226 49.2938 9.18226C48.6871 9.68493 48.2191 10.3089 47.8898 11.0543V14.3043C48.0111 14.6509 48.1844 14.9629 48.4098 15.2403C48.6524 15.5176 48.9211 15.7603 49.2158 15.9683C49.5104 16.1589 49.8311 16.3149 50.1778 16.4363C50.5244 16.5403 50.8624 16.5923 51.1918 16.5923Z" fill="#2196F3"/>
<path d="M80.0264 5.67226C79.905 5.55093 79.6797 5.38626 79.3504 5.17826C79.0384 4.97026 78.6484 4.77093 78.1804 4.58026C77.7297 4.37226 77.2357 4.19893 76.6984 4.06026C76.161 3.9216 75.615 3.85226 75.0604 3.85226C74.0724 3.85226 73.3357 4.03426 72.8504 4.39826C72.365 4.76226 72.1224 5.2736 72.1224 5.93226C72.1224 6.3136 72.209 6.63426 72.3824 6.89426C72.573 7.13693 72.8417 7.3536 73.1884 7.54426C73.535 7.73493 73.9684 7.90826 74.4884 8.06426C75.0257 8.22026 75.641 8.38493 76.3344 8.55826C77.2357 8.80093 78.0504 9.06093 78.7784 9.33826C79.5237 9.6156 80.1477 9.96226 80.6504 10.3783C81.1704 10.7943 81.569 11.2969 81.8464 11.8863C82.1237 12.4583 82.2624 13.1689 82.2624 14.0183C82.2624 15.0063 82.0717 15.8556 81.6904 16.5663C81.3264 17.2596 80.8237 17.8229 80.1824 18.2563C79.5584 18.6896 78.8304 19.0103 77.9984 19.2183C77.1837 19.4089 76.3257 19.5043 75.4244 19.5043C74.0377 19.5043 72.6684 19.2963 71.3164 18.8803C69.9644 18.4643 68.751 17.8749 67.6764 17.1123L69.2624 14.0183C69.4184 14.1743 69.6957 14.3823 70.0944 14.6423C70.5104 14.8849 70.9957 15.1363 71.5504 15.3963C72.105 15.6389 72.7204 15.8469 73.3964 16.0203C74.0724 16.1936 74.7657 16.2803 75.4764 16.2803C77.4524 16.2803 78.4404 15.6476 78.4404 14.3823C78.4404 13.9836 78.3277 13.6456 78.1024 13.3683C77.877 13.0909 77.5564 12.8483 77.1404 12.6403C76.7244 12.4323 76.2217 12.2416 75.6324 12.0683C75.043 11.8949 74.3844 11.7043 73.6564 11.4963C72.7724 11.2536 72.001 10.9936 71.3424 10.7163C70.701 10.4216 70.1637 10.0836 69.7304 9.70226C69.297 9.3036 68.9677 8.85293 68.7424 8.35026C68.5344 7.83026 68.4304 7.21493 68.4304 6.50426C68.4304 5.56826 68.6037 4.73626 68.9504 4.00826C69.297 3.28026 69.7737 2.6736 70.3804 2.18826C71.0044 1.70293 71.7237 1.33893 72.5384 1.09626C73.353 0.836264 74.2284 0.706264 75.1644 0.706264C76.4644 0.706264 77.6604 0.914264 78.7524 1.33026C79.8444 1.72893 80.7977 2.2056 81.6124 2.76026L80.0264 5.67226ZM93.4273 18.5943C92.9593 18.8023 92.3873 19.0103 91.7113 19.2183C91.0353 19.4263 90.3247 19.5303 89.5793 19.5303C89.094 19.5303 88.6347 19.4696 88.2013 19.3483C87.7853 19.2269 87.4127 19.0363 87.0833 18.7763C86.7713 18.4989 86.52 18.1523 86.3293 17.7363C86.1387 17.3029 86.0433 16.7829 86.0433 16.1763V8.35026H84.2493V5.67226H86.0433V1.25226H89.5273V5.67226H92.3873V8.35026H89.5273V15.0063C89.5273 15.4916 89.6487 15.8383 89.8913 16.0463C90.1513 16.2369 90.4633 16.3323 90.8273 16.3323C91.1913 16.3323 91.5467 16.2716 91.8933 16.1503C92.24 16.0289 92.5173 15.9249 92.7253 15.8383L93.4273 18.5943ZM100.182 19.5563C98.7779 19.5563 97.7119 19.1056 96.9839 18.2043C96.2559 17.3029 95.8919 15.9683 95.8919 14.2003V5.67226H99.3759V13.4463C99.3759 15.5436 100.13 16.5923 101.638 16.5923C102.314 16.5923 102.964 16.3929 103.588 15.9943C104.229 15.5783 104.749 14.9543 105.148 14.1223V5.67226H108.632V15.2923C108.632 15.6563 108.693 15.9163 108.814 16.0723C108.953 16.2283 109.169 16.3149 109.464 16.3323V19.2963C109.117 19.3656 108.823 19.4089 108.58 19.4263C108.355 19.4436 108.147 19.4523 107.956 19.4523C107.332 19.4523 106.821 19.3136 106.422 19.0363C106.041 18.7416 105.815 18.3429 105.746 17.8403L105.668 16.7483C105.061 17.6843 104.281 18.3863 103.328 18.8543C102.375 19.3223 101.326 19.5563 100.182 19.5563ZM118.516 19.5563C117.58 19.5563 116.713 19.3743 115.916 19.0103C115.119 18.6463 114.434 18.1436 113.862 17.5023C113.29 16.8609 112.839 16.1156 112.51 15.2663C112.198 14.3996 112.042 13.4723 112.042 12.4843C112.042 11.4963 112.189 10.5776 112.484 9.72826C112.796 8.87893 113.221 8.1336 113.758 7.49226C114.295 6.85093 114.937 6.34826 115.682 5.98426C116.427 5.62026 117.242 5.43826 118.126 5.43826C119.131 5.43826 120.033 5.68093 120.83 6.16626C121.645 6.6516 122.277 7.28426 122.728 8.06426V0.316264H126.212V15.2923C126.212 15.6563 126.273 15.9163 126.394 16.0723C126.515 16.2283 126.723 16.3149 127.018 16.3323V19.2963C126.411 19.4176 125.917 19.4783 125.536 19.4783C124.912 19.4783 124.401 19.3223 124.002 19.0103C123.603 18.6983 123.378 18.2909 123.326 17.7883L123.248 16.9303C122.745 17.7969 122.061 18.4556 121.194 18.9063C120.345 19.3396 119.452 19.5563 118.516 19.5563ZM119.426 16.5923C119.755 16.5923 120.093 16.5403 120.44 16.4363C120.787 16.3149 121.107 16.1503 121.402 15.9423C121.697 15.7343 121.957 15.4916 122.182 15.2143C122.425 14.9369 122.607 14.6336 122.728 14.3043V11.0543C122.589 10.6729 122.39 10.3263 122.13 10.0143C121.887 9.68493 121.601 9.4076 121.272 9.18226C120.96 8.9396 120.622 8.74893 120.258 8.61026C119.911 8.4716 119.565 8.40226 119.218 8.40226C118.698 8.40226 118.213 8.51493 117.762 8.74026C117.329 8.9656 116.956 9.2776 116.644 9.67626C116.332 10.0576 116.089 10.4996 115.916 11.0023C115.743 11.5049 115.656 12.0249 115.656 12.5623C115.656 13.1343 115.751 13.6629 115.942 14.1483C116.133 14.6336 116.393 15.0583 116.722 15.4223C117.051 15.7863 117.441 16.0723 117.892 16.2803C118.36 16.4883 118.871 16.5923 119.426 16.5923ZM130.412 19.2963V5.67226H133.896V19.2963H130.412ZM130.412 3.77426V0.316264H133.896V3.77426H130.412ZM144.111 19.5563C143.002 19.5563 142.005 19.3656 141.121 18.9843C140.237 18.6029 139.483 18.0916 138.859 17.4503C138.252 16.7916 137.784 16.0376 137.455 15.1883C137.126 14.3389 136.961 13.4463 136.961 12.5103C136.961 11.5569 137.126 10.6556 137.455 9.80626C137.784 8.95693 138.252 8.2116 138.859 7.57026C139.483 6.9116 140.237 6.3916 141.121 6.01026C142.005 5.62893 143.002 5.43826 144.111 5.43826C145.22 5.43826 146.208 5.62893 147.075 6.01026C147.959 6.3916 148.704 6.9116 149.311 7.57026C149.935 8.2116 150.412 8.95693 150.741 9.80626C151.07 10.6556 151.235 11.5569 151.235 12.5103C151.235 13.4463 151.07 14.3389 150.741 15.1883C150.412 16.0376 149.944 16.7916 149.337 17.4503C148.73 18.0916 147.985 18.6029 147.101 18.9843C146.217 19.3656 145.22 19.5563 144.111 19.5563ZM140.549 12.5103C140.549 13.1169 140.636 13.6716 140.809 14.1743C141 14.6596 141.251 15.0843 141.563 15.4483C141.892 15.8123 142.274 16.0983 142.707 16.3063C143.14 16.4969 143.608 16.5923 144.111 16.5923C144.614 16.5923 145.082 16.4969 145.515 16.3063C145.948 16.0983 146.321 15.8123 146.633 15.4483C146.962 15.0843 147.214 14.6509 147.387 14.1483C147.578 13.6456 147.673 13.0909 147.673 12.4843C147.673 11.8949 147.578 11.3489 147.387 10.8463C147.214 10.3436 146.962 9.91026 146.633 9.54626C146.321 9.18226 145.948 8.90493 145.515 8.71426C145.082 8.50626 144.614 8.40226 144.111 8.40226C143.608 8.40226 143.14 8.50626 142.707 8.71426C142.274 8.92226 141.892 9.20826 141.563 9.57226C141.251 9.93626 141 10.3696 140.809 10.8723C140.636 11.3749 140.549 11.9209 140.549 12.5103Z" fill="black"/>
</svg>
